<svg width="32" height="32" viewBox="0 0 32 32" fill="none" xmlns="http://www.w3.org/2000/svg">
<g id="account_circle">
<mask id="mask0_676_2149" style="mask-type:alpha" maskUnits="userSpaceOnUse" x="0" y="0" width="32" height="32">
<rect id="Bounding box" width="32" height="32" fill="#D9D9D9"/>
</mask>
<g mask="url(#mask0_676_2149)">
<path id="account_circle_2" d="M8.1316 23.5231C9.35156 22.6792 10.5929 22.0155 11.8556 21.5321C13.1182 21.0486 14.4997 20.8068 16 20.8068C17.5003 20.8068 18.8826 21.0486 20.147 21.5321C21.4114 22.0155 22.6536 22.6792 23.8735 23.5231C24.8074 22.5219 25.5406 21.3895 26.0731 20.1259C26.6056 18.8622 26.8718 17.4869 26.8718 16C26.8718 12.9692 25.8175 10.3996 23.709 8.29103C21.6004 6.18248 19.0308 5.1282 16 5.1282C12.9692 5.1282 10.3996 6.18248 8.29103 8.29103C6.18248 10.3996 5.1282 12.9692 5.1282 16C5.1282 17.4869 5.39529 18.8622 5.92947 20.1259C6.46367 21.3895 7.19771 22.5219 8.1316 23.5231ZM15.9948 16.5641C14.8786 16.5641 13.9392 16.181 13.1765 15.4148C12.4138 14.6487 12.0325 13.7075 12.0325 12.5913C12.0325 11.4752 12.4156 10.5358 13.1817 9.77307C13.9479 9.0104 14.8891 8.62907 16.0052 8.62907C17.1214 8.62907 18.0608 9.01216 18.8235 9.77833C19.5862 10.5445 19.9675 11.4857 19.9675 12.6018C19.9675 13.718 19.5844 14.6574 18.8183 15.4201C18.0521 16.1828 17.1109 16.5641 15.9948 16.5641ZM16.0104 28C14.3334 28 12.7666 27.6885 11.31 27.0654C9.85348 26.4423 8.58253 25.5869 7.4972 24.4992C6.41189 23.4114 5.55769 22.1422 4.9346 20.6915C4.31153 19.2409 4 17.6779 4 16.0026C4 14.3274 4.31153 12.7635 4.9346 11.3111C5.55769 9.85868 6.4131 8.5886 7.50083 7.50087C8.58859 6.41311 9.8578 5.55769 11.3085 4.9346C12.7591 4.31153 14.3221 4 15.9974 4C17.6726 4 19.2365 4.31153 20.6889 4.9346C22.1413 5.55769 23.4114 6.41311 24.4991 7.50087C25.5869 8.5886 26.4423 9.85892 27.0654 11.3118C27.6885 12.7647 28 14.324 28 15.9896C28 17.6666 27.6885 19.2334 27.0654 20.69C26.4423 22.1465 25.5869 23.4175 24.4991 24.5028C23.4114 25.5881 22.1411 26.4423 20.6882 27.0654C19.2353 27.6885 17.676 28 16.0104 28ZM16 26.8718C17.2473 26.8718 18.4838 26.656 19.7094 26.2244C20.935 25.7927 22.0245 25.1618 22.9778 24.3316C22.0245 23.5892 20.957 23.0041 19.7752 22.5765C18.5934 22.1489 17.335 21.935 16 21.935C14.665 21.935 13.4023 22.1446 12.212 22.5637C11.0217 22.9828 9.9641 23.5721 9.0393 24.3316C9.98119 25.1618 11.065 25.7927 12.2906 26.2244C13.5162 26.656 14.7527 26.8718 16 26.8718ZM16.0024 15.4359C16.8111 15.4359 17.4861 15.1644 18.0274 14.6215C18.5687 14.0786 18.8393 13.4029 18.8393 12.5942C18.8393 11.7855 18.5679 11.1105 18.025 10.5692C17.4821 10.0279 16.8063 9.75727 15.9976 9.75727C15.1889 9.75727 14.5139 10.0287 13.9726 10.5716C13.4313 11.1145 13.1607 11.7903 13.1607 12.599C13.1607 13.4076 13.4321 14.0826 13.975 14.6239C14.5179 15.1652 15.1937 15.4359 16.0024 15.4359Z" fill="white"/>
</g>
</g>
</svg>
