<svg width="24" height="24" viewBox="0 0 24 24" fill="none" xmlns="http://www.w3.org/2000/svg">
<g id="Group 117">
<g id="Group 35">
<g id="Union">
<path fill-rule="evenodd" clip-rule="evenodd" d="M11.3462 3.96094C7.84127 3.96094 5 6.80221 5 10.3071C5 12.2778 5.89823 14.0386 7.30762 15.2026V18.538C7.30762 18.95 7.778 19.1852 8.10762 18.938L11.1576 16.6505C11.2203 16.6523 11.2831 16.6532 11.3462 16.6532H13.6538C17.1587 16.6532 20 13.812 20 10.3071C20 6.80221 17.1587 3.96094 13.6538 3.96094H11.3462Z" fill="#999999"/>
<path d="M7.30762 15.2026H7.80762V14.9671L7.62601 14.8171L7.30762 15.2026ZM8.10762 18.938L8.40762 19.338L8.40762 19.338L8.10762 18.938ZM11.1576 16.6505L11.1722 16.1507L10.9975 16.1456L10.8576 16.2505L11.1576 16.6505ZM5.5 10.3071C5.5 7.07835 8.11741 4.46094 11.3462 4.46094V3.46094C7.56513 3.46094 4.5 6.52606 4.5 10.3071H5.5ZM7.62601 14.8171C6.32671 13.744 5.5 12.1223 5.5 10.3071H4.5C4.5 12.4332 5.46976 14.3332 6.98922 15.5881L7.62601 14.8171ZM7.80762 18.538V15.2026H6.80762V18.538H7.80762ZM7.80762 18.538H7.80762H6.80762C6.80762 19.3621 7.74838 19.8324 8.40762 19.338L7.80762 18.538ZM10.8576 16.2505L7.80762 18.538L8.40762 19.338L11.4576 17.0505L10.8576 16.2505ZM11.3462 16.1532C11.288 16.1532 11.23 16.1524 11.1722 16.1507L11.143 17.1503C11.2105 17.1523 11.2782 17.1532 11.3462 17.1532V16.1532ZM13.6538 16.1532H11.3462V17.1532H13.6538V16.1532ZM19.5 10.3071C19.5 13.5358 16.8826 16.1532 13.6538 16.1532V17.1532C17.4349 17.1532 20.5 14.0881 20.5 10.3071H19.5ZM13.6538 4.46094C16.8826 4.46094 19.5 7.07835 19.5 10.3071H20.5C20.5 6.52606 17.4349 3.46094 13.6538 3.46094V4.46094ZM11.3462 4.46094H13.6538V3.46094H11.3462V4.46094Z" fill="#999999"/>
</g>
</g>
</g>
</svg>
